<svg width="409" height="409" viewBox="0 0 409 409" fill="none" xmlns="http://www.w3.org/2000/svg">
<path d="M204.5 409C317.442 409 409 317.442 409 204.5C409 91.5578 317.442 0 204.5 0C91.5578 0 0 91.5578 0 204.5C0 317.442 91.5578 409 204.5 409Z" fill="#F7E1FF"/>
<path d="M97 136C97 127.716 103.716 121 112 121H174.111C178.075 121 181.878 122.569 184.688 125.364L211.577 152.102C214.408 154.917 216 158.745 216 162.738V177C216 185.284 209.284 192 201 192H112C103.716 192 97 185.284 97 177V156.5V136Z" fill="#C224FB" fill-opacity="0.25"/>
<path d="M97 180C97 171.599 97 167.399 98.6349 164.19C100.073 161.368 102.368 159.073 105.19 157.635C108.399 156 112.599 156 121 156H287C295.401 156 299.601 156 302.81 157.635C305.632 159.073 307.927 161.368 309.365 164.19C311 167.399 311 171.599 311 180V263C311 271.401 311 275.601 309.365 278.81C307.927 281.632 305.632 283.927 302.81 285.365C299.601 287 295.401 287 287 287H121C112.599 287 108.399 287 105.19 285.365C102.368 283.927 100.073 281.632 98.6349 278.81C97 275.601 97 271.401 97 263V180Z" fill="#C224FB"/>
</svg>
