<svg width="409" height="409" viewBox="0 0 409 409" fill="none" xmlns="http://www.w3.org/2000/svg">
<path d="M204.5 409C317.442 409 409 317.442 409 204.5C409 91.5578 317.442 0 204.5 0C91.5578 0 0 91.5578 0 204.5C0 317.442 91.5578 409 204.5 409Z" fill="black"/>
<circle cx="160.087" cy="171.549" r="29.129" stroke="white" stroke-width="12" stroke-linecap="round"/>
<path d="M204.334 177.475C207.421 172.129 212.504 168.229 218.466 166.631C224.429 165.033 230.782 165.87 236.127 168.956C241.473 172.042 245.374 177.126 246.971 183.088C248.569 189.051 247.733 195.403 244.646 200.749C241.56 206.095 236.476 209.996 230.514 211.593C224.552 213.191 218.199 212.354 212.853 209.268C207.507 206.182 203.607 201.098 202.009 195.136C200.412 189.173 201.248 182.821 204.334 177.475L204.334 177.475Z" stroke="white" stroke-opacity="0.24" stroke-width="12"/>
<path d="M95.7057 293.533L89.7092 293.328L95.7057 293.533ZM224.469 293.533L218.472 293.738L224.469 293.533ZM223.49 288.502H96.6841V300.502H223.49V288.502ZM101.702 293.738C101.836 289.823 102.903 273.583 110.839 258.516C114.768 251.058 120.297 244.045 128.095 238.887C135.85 233.757 146.175 230.244 160.087 230.244V218.244C144.034 218.244 131.365 222.336 121.475 228.878C111.628 235.391 104.862 244.115 100.222 252.923C91.023 270.388 89.8643 288.792 89.7092 293.328L101.702 293.738ZM160.087 230.244C174 230.244 184.324 233.757 192.079 238.887C199.877 244.045 205.407 251.058 209.335 258.516C217.272 273.583 218.338 289.823 218.472 293.738L230.465 293.328C230.31 288.792 229.151 270.388 219.952 252.923C215.313 244.115 208.546 235.391 198.7 228.878C188.81 222.336 176.14 218.244 160.087 218.244V230.244ZM96.6841 288.502C99.1745 288.502 101.811 290.556 101.702 293.738L89.7092 293.328C89.5626 297.613 93.0891 300.502 96.6841 300.502V288.502ZM223.49 300.502C227.085 300.502 230.612 297.613 230.465 293.328L218.472 293.738C218.364 290.556 221 288.502 223.49 288.502V300.502Z" fill="white"/>
<path d="M223.527 294.499L223.325 288.503L223.527 300.499V294.499ZM271.202 293.438L277.151 292.663L277.151 292.663L271.202 293.438ZM204.587 241.581L201.372 236.515L195.191 240.438L200.252 245.729L204.587 241.581ZM224.469 293.531L218.472 293.736L218.472 293.736L224.469 293.531ZM270.224 288.499H223.527V300.499H270.224V288.499ZM265.252 294.214C264.81 290.819 267.598 288.499 270.224 288.499V300.499C274.032 300.499 277.747 297.23 277.151 292.663L265.252 294.214ZM224.49 241.951C240.1 241.951 249.901 252.01 256.257 264.454C262.624 276.919 264.766 290.483 265.252 294.214L277.151 292.663C276.605 288.474 274.247 273.294 266.943 258.996C259.629 244.676 246.591 229.951 224.49 229.951V241.951ZM207.802 246.647C212.344 243.764 217.799 241.951 224.49 241.951V229.951C215.469 229.951 207.792 232.441 201.372 236.515L207.802 246.647ZM200.252 245.729C216.444 262.654 218.289 288.37 218.472 293.736L230.465 293.326C230.272 287.674 228.448 257.843 208.923 237.433L200.252 245.729ZM218.472 293.736C218.366 290.638 220.881 288.585 223.325 288.503L223.729 300.496C227.243 300.378 230.608 297.503 230.465 293.326L218.472 293.736Z" fill="white" fill-opacity="0.24"/>
<rect x="256.692" y="139.347" width="52.6935" height="5.85483" rx="2.92742" stroke="white" stroke-width="5.85483" stroke-linecap="round"/>
<rect x="285.966" y="115.927" width="52.6935" height="5.85483" rx="2.92742" transform="rotate(90 285.966 115.927)" stroke="white" stroke-width="5.85483" stroke-linecap="round"/>
</svg>
